HIERARCHY
ROOT Hips
{
    OFFSET 0.000000 0.000000 0.000000
    CHANNELS 6 Xposition Yposition Zposition Zrotation Xrotation Yrotation
    JOINT Spine
    {
        OFFSET -0.000000 14.517291 0.000000
        CHANNELS 3 Zrotation Xrotation Yrotation
        JOINT Spine1
        {
            OFFSET -0.000000 37.558300 0.000000
            CHANNELS 3 Zrotation Xrotation Yrotation
            JOINT Neck
            {
                OFFSET -0.000000 37.404057 3.400369
                CHANNELS 3 Zrotation Xrotation Yrotation
                JOINT Head
                {
                    OFFSET -0.000000 24.785618 -3.540803
                    CHANNELS 3 Zrotation Xrotation Yrotation
                    End Site
                    {
                        OFFSET -0.000000 35.408028 0.000000
                    }
                }
            }
            JOINT LeftShoulder
            {
                OFFSET 6.992933 33.973492 -0.192664
                CHANNELS 3 Zrotation Xrotation Yrotation
                JOINT LeftArm
                {
                    OFFSET 21.527611 0.000000 0.000000
                    CHANNELS 3 Zrotation Xrotation Yrotation
                    JOINT LeftForeArm
                    {
                        OFFSET 56.353916 0.000000 0.000000
                        CHANNELS 3 Zrotation Xrotation Yrotation
                        JOINT LeftHand
                        {
                            OFFSET 47.774071 0.000000 0.000000
                            CHANNELS 3 Zrotation Xrotation Yrotation
                            End Site
                            {
                                OFFSET 26.556021 0.000000 0.000000
                            }
                        }
                    }
                }
            }
            JOINT RightShoulder
            {
                OFFSET -7.065357 33.973492 -0.192664
                CHANNELS 3 Zrotation Xrotation Yrotation
                JOINT RightArm
                {
                    OFFSET -21.527611 0.000000 0.000000
                    CHANNELS 3 Zrotation Xrotation Yrotation
                    JOINT RightForeArm
                    {
                        OFFSET -56.353916 0.000000 0.000000
                        CHANNELS 3 Zrotation Xrotation Yrotation
                        JOINT RightHand
                        {
                            OFFSET -47.774071 0.000000 0.000000
                            CHANNELS 3 Zrotation Xrotation Yrotation
                            End Site
                            {
                                OFFSET -26.556021 0.000000 0.000000
                            }
                        }
                    }
                }
            }
        }
    }
    JOINT LeftUpLeg
    {
        OFFSET 17.704014 0.000000 0.000000
        CHANNELS 3 Zrotation Xrotation Yrotation
        JOINT LeftLeg
        {
            OFFSET -0.000000 -81.181816 0.000000
            CHANNELS 3 Zrotation Xrotation Yrotation
            JOINT LeftFoot
            {
                OFFSET -0.000000 -62.821102 0.000000
                CHANNELS 3 Zrotation Xrotation Yrotation
                JOINT LeftToeBase
                {
                    OFFSET -0.000000 -11.507608 26.556021
                    CHANNELS 3 Zrotation Xrotation Yrotation
                    End Site
                    {
                        OFFSET -0.000000 0.000000 7.081605
                    }
                }
            }
        }
    }
    JOINT RightUpLeg
    {
        OFFSET -17.704014 0.000000 0.000000
        CHANNELS 3 Zrotation Xrotation Yrotation
        JOINT RightLeg
        {
            OFFSET -0.000000 -81.181816 0.000000
            CHANNELS 3 Zrotation Xrotation Yrotation
            JOINT RightFoot
            {
                OFFSET -0.000000 -62.821102 0.000000
                CHANNELS 3 Zrotation Xrotation Yrotation
                JOINT RightToeBase
                {
                    OFFSET -0.000000 -11.507608 26.556021
                    CHANNELS 3 Zrotation Xrotation Yrotation
                    End Site
                    {
                        OFFSET -0.000000 0.000000 7.081605
                    }
                }
            }
        }
    }
}
MOTION
Frames:    10
Frame Time:    0.008333
6.645705    149.252899    -82.734039    -3.568828    -17.990932    -24.750626    4.022352    -2.344113    0.298040    -0.240449    1.543691    0.074660    11.960325    3.223705    10.323924    -7.102643    9.462215    8.889648    0.060035    10.401215    -11.396415    -40.402668    15.122175    -38.182499    31.539833    -39.803986    -44.246811    -22.700317    -22.793552    -33.002426    -3.274875    6.495880    -3.206781    37.972519    12.634012    70.171333    2.002686    -13.415798    94.232025    12.325314    -13.131494    22.388693    15.399960    -7.642606    -4.721708    -12.418962    23.772190    -14.217077    -10.419331    -5.625246    38.555264    0.000000    0.000000    0.000000    -13.394794    12.838243    -5.363426    7.432557    44.616440    -2.141871    -1.023013    -38.496586    -11.090266    0.000000    0.000000    0.000000    
6.640915    149.251816    -82.743965    -3.563065    -17.987823    -24.732061    4.032059    -2.353800    0.287219    -0.249534    1.559604    0.070545    11.943393    3.229295    10.322815    -7.091362    9.429925    8.889769    0.063719    10.404148    -11.393826    -40.410122    15.098780    -38.194748    31.502462    -39.794636    -44.297783    -22.686207    -22.788431    -32.990429    -3.265234    6.492889    -3.196094    37.977131    12.627356    70.164757    2.030303    -13.373980    94.180595    12.304092    -13.118799    22.406984    15.396744    -7.648693    -4.713263    -12.407400    23.761381    -14.222108    -10.411991    -5.603248    38.532478    0.000000    0.000000    0.000000    -13.393615    12.836372    -5.361487    7.451364    44.618355    -2.136861    -1.051524    -38.500473    -11.120771    0.000000    0.000000    0.000000    
6.632778    149.251648    -82.753250    -3.559804    -17.987299    -24.709864    4.082744    -2.343982    0.274336    -0.390072    1.600144    0.067652    12.078520    3.103137    10.353090    -7.128086    9.514802    8.894400    0.238829    10.381717    -11.291367    -40.463554    15.143089    -38.338055    31.516951    -39.783222    -44.333481    -22.532469    -22.814529    -32.926037    -3.168264    6.447375    -3.260943    37.918228    12.679216    70.212311    2.025245    -13.417529    94.159325    12.296591    -13.159780    22.389801    15.393276    -7.649705    -4.705455    -12.390086    23.744690    -14.219673    -10.424265    -5.588129    38.506672    0.000000    0.000000    0.000000    -13.385432    12.842281    -5.361376    7.471789    44.613800    -2.152245    -1.061107    -38.501564    -11.135254    0.000000    0.000000    0.000000    
6.625459    149.251129    -82.764198    -3.559523    -17.980442    -24.694246    4.096577    -2.354331    0.267764    -0.398822    1.611811    0.065560    12.073738    3.111648    10.346152    -7.128409    9.492749    8.887263    0.241657    10.378959    -11.285441    -40.461918    15.149371    -38.349152    31.503275    -39.783249    -44.357071    -22.507277    -22.819843    -32.927212    -3.158531    6.448662    -3.257654    37.912136    12.698354    70.212837    2.032643    -13.416348    94.116760    12.293573    -13.165257    22.390621    15.398629    -7.662051    -4.701033    -12.381259    23.744480    -14.226807    -10.438872    -5.579547    38.496891    0.000000    0.000000    0.000000    -13.371022    12.842249    -5.383979    7.456887    44.604385    -2.158239    -1.037046    -38.505024    -11.113881    0.000000    0.000000    0.000000    
6.619513    149.248978    -82.777939    -3.557252    -17.971485    -24.675714    4.099481    -2.361387    0.258967    -0.387879    1.612946    0.063284    12.074504    3.129340    10.350181    -7.150013    9.467181    8.890388    0.232741    10.379788    -11.289022    -40.471363    15.130963    -38.349834    31.465261    -39.783604    -44.397572    -22.502316    -22.827324    -32.914612    -3.161680    6.450398    -3.248678    37.917656    12.715120    70.203659    2.051277    -13.406492    94.085777    12.279725    -13.178886    22.368565    15.403201    -7.683387    -4.708470    -12.383922    23.747032    -14.210024    -10.440458    -5.568700    38.486469    0.000000    0.000000    0.000000    -13.356155    12.831283    -5.403308    7.437469    44.615871    -2.116805    -1.040421    -38.503956    -11.133431    0.000000    0.000000    0.000000    
6.610823    149.247559    -82.790436    -3.558532    -17.968002    -24.654978    4.107218    -2.359015    0.251123    -0.389988    1.611316    0.060720    12.071456    3.124980    10.349962    -7.144058    9.466507    8.890371    0.230018    10.375687    -11.276222    -40.473274    15.117487    -38.359127    31.397633    -39.762939    -44.461819    -22.446001    -22.831322    -32.891266    -3.155452    6.446068    -3.247528    37.926979    12.744504    70.188843    2.075122    -13.402560    94.066284    12.287538    -13.200165    22.345266    15.409709    -7.696785    -4.731629    -12.388171    23.744421    -14.206296    -10.441442    -5.562657    38.486656    0.000000    0.000000    0.000000    -13.341809    12.830645    -5.430799    7.430641    44.623798    -2.121545    -1.017968    -38.507256    -11.120725    0.000000    0.000000    0.000000    
6.602928    149.244934    -82.801880    -3.559098    -17.963589    -24.634333    4.115492    -2.359268    0.245958    -0.392225    1.606119    0.058373    12.066592    3.129241    10.354905    -7.131328    9.460953    8.896984    0.233217    10.378254    -11.284524    -40.491123    15.103114    -38.357124    31.376968    -39.752117    -44.486664    -22.433472    -22.826010    -32.874729    -3.144017    6.456227    -3.251869    37.915939    12.775706    70.190613    2.071323    -13.415864    94.035652    12.269361    -13.215588    22.310534    15.419715    -7.710572    -4.751252    -12.400810    23.738535    -14.195689    -10.457403    -5.554120    38.484509    0.000000    0.000000    0.000000    -13.327843    12.830658    -5.456277    7.424813    44.626431    -2.110243    -1.032406    -38.508934    -11.133534    0.000000    0.000000    0.000000    
6.595147    149.241455    -82.812141    -3.557845    -17.956331    -24.611145    4.119591    -2.361725    0.241002    -0.389872    1.600172    0.057094    12.060807    3.126925    10.352856    -7.113422    9.464092    8.896566    0.237272    10.380816    -11.278325    -40.498486    15.098703    -38.368034    31.326523    -39.740108    -44.531422    -22.391630    -22.835062    -32.852619    -3.141948    6.463688    -3.259620    37.916557    12.813025    70.188545    2.092641    -13.434180    94.025070    12.273695    -13.256457    22.297506    15.428602    -7.730686    -4.791145    -12.420962    23.733845    -14.164796    -10.457737    -5.543587    38.474274    0.000000    0.000000    0.000000    -13.314436    12.835435    -5.470093    7.439178    44.610870    -2.133584    -1.041197    -38.517159    -11.147346    0.000000    0.000000    0.000000    
6.583673    149.237991    -82.816551    -3.561790    -17.960680    -24.589230    4.123157    -2.367835    0.236188    -0.390976    1.612976    0.054562    12.071838    3.130900    10.353683    -7.118209    9.461370    8.896049    0.243888    10.390398    -11.270783    -40.498436    15.088555    -38.394485    31.291512    -39.737915    -44.548698    -22.384939    -22.842312    -32.858292    -3.130211    6.466930    -3.256429    37.923355    12.822268    70.173676    2.106899    -13.411983    94.004013    12.258561    -13.252132    22.289707    15.435638    -7.735190    -4.821927    -12.434185    23.730322    -14.153286    -10.456598    -5.534068    38.479179    0.000000    0.000000    0.000000    -13.301874    12.854720    -5.488921    7.431593    44.603558    -2.129208    -1.038662    -38.523136    -11.130732    0.000000    0.000000    0.000000    
6.572523    149.239944    -82.819069    -3.564533    -17.971476    -24.566771    4.122083    -2.367280    0.231973    -0.393621    1.621323    0.054334    12.091643    3.132403    10.353649    -7.127499    9.470118    8.893775    0.252331    10.395084    -11.270873    -40.490280    15.092379    -38.407883    31.261761    -39.735374    -44.569309    -22.360811    -22.857182    -32.832512    -3.112670    6.462957    -3.255054    37.924095    12.843694    70.153473    2.129144    -13.404787    93.997299    12.256079    -13.268820    22.285025    15.440389    -7.728652    -4.863518    -12.448740    23.718874    -14.152555    -10.462278    -5.530708    38.485905    0.000000    0.000000    0.000000    -13.295187    12.880073    -5.519082    7.430663    44.590248    -2.153482    -1.029013    -38.520782    -11.110379    0.000000    0.000000    0.000000    
